<svg id="Layer_1" data-name="Layer 1" xmlns="http://www.w3.org/2000/svg" xmlns:xlink="http://www.w3.org/1999/xlink" viewBox="0 0 40 40"><defs><style>.cls-1,.cls-10,.cls-2,.cls-7{fill:none;}.cls-1{clip-rule:evenodd;}.cls-3{clip-path:url(#clip-path);}.cls-4{clip-path:url(#clip-path-2);}.cls-5{clip-path:url(#clip-path-3);}.cls-6{fill:#e2f4fc;}.cls-10,.cls-7{stroke:#4883c4;stroke-miterlimit:10;}.cls-7{stroke-width:4px;}.cls-8{clip-path:url(#clip-path-6);}.cls-9{fill:#fff;}.cls-10{stroke-width:2px;}</style><clipPath id="clip-path" transform="translate(-53.5 -52)"><path class="cls-1" d="M73.5,55a17,17,0,1,1-17,17A17,17,0,0,1,73.5,55Zm0-2a19,19,0,1,0,19,19A19,19,0,0,0,73.5,53Zm-59-40h118V131H14.5Z"/></clipPath><clipPath id="clip-path-2" transform="translate(-53.5 -52)"><circle class="cls-2" cx="73.5" cy="72" r="18"/></clipPath><clipPath id="clip-path-3" transform="translate(-53.5 -52)"><rect class="cls-2" x="13.5" y="-708" width="2880" height="1492"/></clipPath><clipPath id="clip-path-6" transform="translate(-53.5 -52)"><path class="cls-1" d="M77.26,72.3l-.92.51v6.05A3.07,3.07,0,0,1,73.52,82a3.13,3.13,0,0,1-2.89-3.14v-6l-.85-.54a6,6,0,0,1-2.28-4.73,6.23,6.23,0,0,1,4-5.58v6s1.55.69,2,1c.54-.31,1.47-.66,2-1V62a6.26,6.26,0,0,1,4,5.58A6,6,0,0,1,77.26,72.3Z"/></clipPath></defs><title>GlobalMarketplaceWrench-CXOS</title><g class="cls-3"><g class="cls-4"><g class="cls-5"><circle class="cls-6" cx="20" cy="20" r="18"/></g></g></g><g class="cls-4"><g class="cls-5"><circle class="cls-7" cx="20" cy="20" r="18"/></g></g><g class="cls-8"><g class="cls-5"><rect class="cls-9" x="4" width="32.04" height="40"/></g></g><path class="cls-10" d="M77.26,72.3l-.92.51v6.05A3.07,3.07,0,0,1,73.52,82a3.13,3.13,0,0,1-2.89-3.14v-6l-.85-.54a6,6,0,0,1-2.28-4.73,6.23,6.23,0,0,1,4-5.58v6s1.55.69,2,1c.54-.31,1.47-.66,2-1V62a6.26,6.26,0,0,1,4,5.58A6,6,0,0,1,77.26,72.3Z" transform="translate(-53.5 -52)"/></svg>