<svg id="SvgjsSvg1000" xmlns="http://www.w3.org/2000/svg" version="1.1" xmlns:xlink="http://www.w3.org/1999/xlink" xmlns:svgjs="http://svgjs.com/svgjs" width="19" height="14" viewBox="0 0 19 14"><title>Path 3</title><desc>Created with Avocode.</desc><defs id="SvgjsDefs1001"></defs><path id="SvgjsPath1007" d="M23 139L27 133L31 140L37.5 130 " fill-opacity="0" fill="#ffffff" stroke-dasharray="0" stroke-linejoin="miter" stroke-linecap="butt" stroke-opacity="1" stroke="#198afa" stroke-miterlimit="50" stroke-width="1" transform="matrix(1,0,0,1,-20.5,-127.5)"></path><path id="SvgjsPath1008" d="M21 138.5C21 137.67157 21.67157 137 22.5 137C23.32843 137 24 137.67157 24 138.5C24 139.32843 23.32843 140 22.5 140C21.67157 140 21 139.32843 21 138.5Z " fill="#e1f8fe" fill-opacity="1" transform="matrix(1,0,0,1,-20.5,-127.5)"></path><path id="SvgjsPath1009" d="M21 138.5C21 137.67157 21.67157 137 22.5 137C23.32843 137 24 137.67157 24 138.5C24 139.32843 23.32843 140 22.5 140C21.67157 140 21 139.32843 21 138.5Z " fill-opacity="0" fill="#ffffff" stroke-dasharray="0" stroke-linejoin="miter" stroke-linecap="butt" stroke-opacity="1" stroke="#0a8dff" stroke-miterlimit="50" stroke-width="1" transform="matrix(1,0,0,1,-20.5,-127.5)"></path><path id="SvgjsPath1010" d="M25 132.5C25 131.67157 25.67157 131 26.5 131C27.32843 131 28 131.67157 28 132.5C28 133.32843 27.32843 134 26.5 134C25.67157 134 25 133.32843 25 132.5Z " fill="#e1f8fe" fill-opacity="1" transform="matrix(1,0,0,1,-20.5,-127.5)"></path><path id="SvgjsPath1011" d="M25 132.5C25 131.67157 25.67157 131 26.5 131C27.32843 131 28 131.67157 28 132.5C28 133.32843 27.32843 134 26.5 134C25.67157 134 25 133.32843 25 132.5Z " fill-opacity="0" fill="#ffffff" stroke-dasharray="0" stroke-linejoin="miter" stroke-linecap="butt" stroke-opacity="1" stroke="#0a8dff" stroke-miterlimit="50" stroke-width="1" transform="matrix(1,0,0,1,-20.5,-127.5)"></path><path id="SvgjsPath1012" d="M29 139.5C29 138.67157 29.67157 138 30.5 138C31.32843 138 32 138.67157 32 139.5C32 140.32843 31.32843 141 30.5 141C29.67157 141 29 140.32843 29 139.5Z " fill="#e1f8fe" fill-opacity="1" transform="matrix(1,0,0,1,-20.5,-127.5)"></path><path id="SvgjsPath1013" d="M29 139.5C29 138.67157 29.67157 138 30.5 138C31.32843 138 32 138.67157 32 139.5C32 140.32843 31.32843 141 30.5 141C29.67157 141 29 140.32843 29 139.5Z " fill-opacity="0" fill="#ffffff" stroke-dasharray="0" stroke-linejoin="miter" stroke-linecap="butt" stroke-opacity="1" stroke="#0a8dff" stroke-miterlimit="50" stroke-width="1" transform="matrix(1,0,0,1,-20.5,-127.5)"></path><path id="SvgjsPath1014" d="M36 129.5C36 128.67157 36.67157 128 37.5 128C38.32843 128 39 128.67157 39 129.5C39 130.32843 38.32843 131 37.5 131C36.67157 131 36 130.32843 36 129.5Z " fill="#e1f8fe" fill-opacity="1" transform="matrix(1,0,0,1,-20.5,-127.5)"></path><path id="SvgjsPath1015" d="M36 129.5C36 128.67157 36.67157 128 37.5 128C38.32843 128 39 128.67157 39 129.5C39 130.32843 38.32843 131 37.5 131C36.67157 131 36 130.32843 36 129.5Z " fill-opacity="0" fill="#ffffff" stroke-dasharray="0" stroke-linejoin="miter" stroke-linecap="butt" stroke-opacity="1" stroke="#0a8dff" stroke-miterlimit="50" stroke-width="1" transform="matrix(1,0,0,1,-20.5,-127.5)"></path></svg>