<?xml version="1.0" encoding="utf-8"?>
<!-- Generator: Adobe Illustrator 20.1.0, SVG Export Plug-In . SVG Version: 6.00 Build 0)  -->
<svg version="1.1" id="Layer_1" xmlns="http://www.w3.org/2000/svg" xmlns:xlink="http://www.w3.org/1999/xlink" x="20px" y="20px"
	 viewBox="0 0 147 144" style="enable-background:new 0 0 147 144;" xml:space="preserve">
<style type="text/css">
	.st0{clip-path:url(#SVGID_8_);}
	.st1{clip-path:url(#SVGID_10_);fill:#E2F4FC;}
	.st2{clip-path:url(#SVGID_12_);}
	.st3{clip-path:url(#SVGID_14_);fill:none;stroke:#4883C4;stroke-width:4.6332;stroke-miterlimit:10;}
	.st4{fill:none;}
	.st5{clip-path:url(#SVGID_16_);}
	.st6{clip-path:url(#SVGID_18_);}
	.st7{clip-path:url(#SVGID_20_);fill:#FFFFFF;}
	.st8{clip-path:url(#SVGID_22_);}
	.st9{clip-path:url(#SVGID_24_);fill:none;stroke:#4883C4;stroke-width:4.6332;stroke-miterlimit:10;}
</style>
<g>
	<g>
		<g>
			<defs>
				<rect id="SVGID_1_" x="13.5" y="-764" width="2880" height="1562"/>
			</defs>
			<clipPath id="SVGID_2_">
				<use xlink:href="#SVGID_1_"  style="overflow:visible;"/>
			</clipPath>
		</g>
	</g>
	<g>
		<g>
			<defs>
				<rect id="SVGID_3_" x="13.5" y="-764" width="2880" height="1562"/>
			</defs>
			<clipPath id="SVGID_4_">
				<use xlink:href="#SVGID_3_"  style="overflow:visible;"/>
			</clipPath>
		</g>
	</g>
	<g>
		<g>
			<defs>
				<rect id="SVGID_5_" x="13.5" y="-764" width="2880" height="1562"/>
			</defs>
			<clipPath id="SVGID_6_">
				<use xlink:href="#SVGID_5_"  style="overflow:visible;"/>
			</clipPath>
		</g>
	</g>
</g>
<g>
	<g>
		<defs>
			<path id="SVGID_7_" d="M77.6,59.9v-0.5c0-1.6-1.3-2.9-2.9-2.9h-2.3c-1.6,0-2.9,1.3-2.9,2.9v0.5H70l-0.2-0.6
				c-1.5,0.4-2.9,1.1-4.2,2.1l0.3,0.5l0.4-0.5L66,61.1c-1.2-1-3.1-0.8-4.1,0.4l-1.5,1.8c-1,1.2-0.8,3.1,0.4,4.1l0.5,0.4l-0.2-0.7
				c-0.6,1.5-1,3-1,4.7l0.6,0l-0.1-0.6l-0.5,0.1c-1.6,0.4-2.5,1.9-2.2,3.5l0.5,2.3c0.4,1.6,1.9,2.5,3.5,2.2l0.5-0.1l-0.1-0.6
				l-0.5,0.3c0.7,1.4,1.7,2.7,2.9,3.7l0.4-0.4l-0.5-0.3l-0.2,0.5c-0.7,1.4-0.1,3.2,1.3,3.9l2.1,1c1.4,0.7,3.2,0.1,3.9-1.3l0.2-0.5
				l-0.5-0.3l-0.1,0.6c0.8,0.1,1.5,0.2,2.3,0.2s1.6-0.1,2.3-0.2l-0.1-0.6l-0.5,0.3l0.2,0.5c0.7,1.4,2.4,2,3.9,1.3l2.1-1
				c1.4-0.7,2-2.4,1.3-3.9l-0.2-0.5l-0.5,0.3l0.4,0.4c1.2-1.1,2.2-2.3,2.9-3.7l-0.5-0.3l-0.1,0.6l0.5,0.1c1.6,0.4,3.1-0.6,3.5-2.2
				l0.5-2.3c0.4-1.6-0.6-3.1-2.2-3.5l-0.5-0.1l-0.1,0.6l0.6,0c-0.1-1.6-0.4-3.2-1-4.7l-0.2,0.7l0.5-0.4c1.2-1,1.4-2.8,0.4-4.1
				L85,61.5c-1-1.2-2.8-1.4-4.1-0.4l-0.4,0.3l0.4,0.5l0.3-0.5c-1.3-0.9-2.7-1.6-4.2-2.1L77,59.9H77.6z"/>
		</defs>
		<clipPath id="SVGID_8_">
			<use xlink:href="#SVGID_7_"  style="overflow:visible;"/>
		</clipPath>
		<g class="st0">
			<defs>
				<rect id="SVGID_9_" x="12.5" y="-713" width="2880" height="1562"/>
			</defs>
			<clipPath id="SVGID_10_">
				<use xlink:href="#SVGID_9_"  style="overflow:visible;"/>
			</clipPath>
			<rect x="48.4" y="47" class="st1" width="50.1" height="50"/>
		</g>
	</g>
	<g>
		<defs>
			<path id="SVGID_11_" d="M77,59.9v-0.5c0-1.3-1-2.3-2.3-2.3h-2.3c-1.3,0-2.3,1-2.3,2.3v0.5c-1.4,0.4-2.8,1.1-4,2l-0.4-0.3
				c-1-0.8-2.5-0.7-3.3,0.3L61,63.7c-0.8,1-0.6,2.5,0.4,3.3l0.5,0.4c-0.6,1.4-0.9,2.9-1,4.5l-0.5,0.1c-1.2,0.3-2,1.5-1.7,2.8
				l0.5,2.3c0.3,1.3,1.5,2,2.8,1.7l0.5-0.1c0.7,1.3,1.7,2.6,2.8,3.6l-0.2,0.5c-0.6,1.1-0.1,2.5,1.1,3.1l2.1,1
				c1.2,0.6,2.5,0.1,3.1-1.1l0.2-0.5c0.7,0.1,1.5,0.2,2.2,0.2c0.8,0,1.5-0.1,2.2-0.2l0.2,0.5c0.6,1.1,2,1.6,3.1,1.1l2.1-1
				c1.2-0.6,1.6-2,1.1-3.1l-0.2-0.5c1.1-1,2.1-2.2,2.8-3.6l0.5,0.1c1.2,0.3,2.5-0.5,2.8-1.7l0.5-2.3c0.3-1.3-0.5-2.5-1.7-2.8
				l-0.5-0.1c-0.1-1.6-0.4-3.1-1-4.5l0.5-0.4c1-0.8,1.2-2.3,0.4-3.3l-1.5-1.8c-0.8-1-2.3-1.1-3.3-0.3L81,61.8
				C79.8,60.9,78.4,60.3,77,59.9z M36.4,35h74.1v74H36.4V35z"/>
		</defs>
		<clipPath id="SVGID_12_">
			<use xlink:href="#SVGID_11_"  style="overflow:visible;"/>
		</clipPath>
		<g class="st2">
			<defs>
				<rect id="SVGID_13_" x="12.5" y="-713" width="2880" height="1562"/>
			</defs>
			<clipPath id="SVGID_14_">
				<use xlink:href="#SVGID_13_"  style="overflow:visible;"/>
			</clipPath>
			<path class="st3" d="M77,59.9v-0.5c0-1.3-1-2.3-2.3-2.3h-2.3c-1.3,0-2.3,1-2.3,2.3v0.5c-1.4,0.4-2.8,1.1-4,2l-0.4-0.3
				c-1-0.8-2.5-0.7-3.3,0.3L61,63.7c-0.8,1-0.6,2.5,0.4,3.3l0.5,0.4c-0.6,1.4-0.9,2.9-1,4.5l-0.5,0.1c-1.2,0.3-2,1.5-1.7,2.8
				l0.5,2.3c0.3,1.3,1.5,2,2.8,1.7l0.5-0.1c0.7,1.3,1.7,2.6,2.8,3.6l-0.2,0.5c-0.6,1.1-0.1,2.5,1.1,3.1l2.1,1
				c1.2,0.6,2.5,0.1,3.1-1.1l0.2-0.5c0.7,0.1,1.5,0.2,2.2,0.2c0.8,0,1.5-0.1,2.2-0.2l0.2,0.5c0.6,1.1,2,1.6,3.1,1.1l2.1-1
				c1.2-0.6,1.6-2,1.1-3.1l-0.2-0.5c1.1-1,2.1-2.2,2.8-3.6l0.5,0.1c1.2,0.3,2.5-0.5,2.8-1.7l0.5-2.3c0.3-1.3-0.5-2.5-1.7-2.8
				l-0.5-0.1c-0.1-1.6-0.4-3.1-1-4.5l0.5-0.4c1-0.8,1.2-2.3,0.4-3.3l-1.5-1.8c-0.8-1-2.3-1.1-3.3-0.3L81,61.8
				C79.8,60.9,78.4,60.3,77,59.9z"/>
		</g>
	</g>
	<rect x="38.5" y="37" class="st4" width="71" height="70"/>
	<g>
		<defs>
			<path id="SVGID_15_" d="M73.5,77.8c-3.2,0-5.8-2.6-5.8-5.8s2.6-5.8,5.8-5.8s5.8,2.6,5.8,5.8S76.7,77.8,73.5,77.8z M73.5,80.2
				c4.5,0,8.2-3.7,8.2-8.2s-3.7-8.2-8.2-8.2s-8.2,3.7-8.2,8.2S69,80.2,73.5,80.2z M25.3,23.8h96.3v96.3H25.3V23.8z"/>
		</defs>
		<clipPath id="SVGID_16_">
			<use xlink:href="#SVGID_15_"  style="overflow:visible;"/>
		</clipPath>
		<g class="st5">
			<defs>
				<circle id="SVGID_17_" cx="73.5" cy="72" r="7"/>
			</defs>
			<clipPath id="SVGID_18_">
				<use xlink:href="#SVGID_17_"  style="overflow:visible;"/>
			</clipPath>
			<g class="st6">
				<defs>
					<rect id="SVGID_19_" x="12.5" y="-713" width="2880" height="1562"/>
				</defs>
				<clipPath id="SVGID_20_">
					<use xlink:href="#SVGID_19_"  style="overflow:visible;"/>
				</clipPath>
				<circle class="st7" cx="73.5" cy="72" r="7"/>
			</g>
		</g>
	</g>
	<g>
		<defs>
			<circle id="SVGID_21_" cx="73.5" cy="72" r="7"/>
		</defs>
		<clipPath id="SVGID_22_">
			<use xlink:href="#SVGID_21_"  style="overflow:visible;"/>
		</clipPath>
		<g class="st8">
			<defs>
				<rect id="SVGID_23_" x="12.5" y="-713" width="2880" height="1562"/>
			</defs>
			<clipPath id="SVGID_24_">
				<use xlink:href="#SVGID_23_"  style="overflow:visible;"/>
			</clipPath>
			<circle class="st9" cx="73.5" cy="72" r="7"/>
		</g>
	</g>
</g>
</svg>
