<svg xmlns="http://www.w3.org/2000/svg" width="17" height="18" viewBox="0 0 17 18">
  <g fill="none" fill-rule="evenodd" transform="translate(.38)">
    <rect width="5" height="16" x="5.621" y="1" fill="#E1F8FE"/>
    <rect width="10.379" height="14" x="2.931" y="3" fill="#E1F8FE"/>
    <rect width="14.914" height="4" x=".664" y="3" fill="#E1F8FE"/>
    <path fill="#0A8DFF" d="M3,17 L13,17 L13,7 L3,7 L3,17 Z M2,6 L14,6 L14,18 L2,18 L2,6 Z"/>
    <rect width="1" height="10" x="5" y="7" fill="#0A8DFF"/>
    <rect width="1" height="10" x="10" y="7" fill="#0A8DFF"/>
    <path fill="#0A8DFF" d="M1,6 L15,6 L15,4 L1,4 L1,6 Z M0,3 L16,3 L16,7 L0,7 L0,3 Z"/>
    <path fill="#0A8DFF" d="M6,1 L6,3 L10,3 L10,1 L6,1 Z M5,0 L11,0 L11,4 L5,4 L5,0 Z"/>
  </g>
</svg>
