<svg id="Layer_1" data-name="Layer 1" xmlns="http://www.w3.org/2000/svg" viewBox="0 0 33.02 31"><defs><style>.cls-1{fill:none;}.cls-2{fill:#e2f4fc;stroke:#4883c4;stroke-miterlimit:10;stroke-width:2px;}</style></defs><title>FoldersBackups-CXOS</title><path class="cls-1" d="M14.71,36.16a2.78,2.78,0,0,0,2.68,2H37.81a2.77,2.77,0,0,0,2.68-2l2.6-14.27c.16-.87-.84-1.69-2.49-1.69h-26c-1.66,0-2.65.82-2.49,1.69Z" transform="translate(-11.09 -8.2)"/><path class="cls-2" d="M13.09,11.22a2,2,0,0,1,2-2h2a5.54,5.54,0,0,1,3.41,1.41c.78.78,1.48.59,2.58.59h18a2,2,0,0,1,2,2v2a2,2,0,0,1-2,2h-26a2,2,0,0,1-2-2Zm1.51,9h26c1.66,0,2.65.82,2.49,1.69l-2.6,14.27a2.77,2.77,0,0,1-2.68,2H17.39a2.78,2.78,0,0,1-2.68-2L12.1,21.89C11.95,21,12.93,20.2,14.6,20.2Z" transform="translate(-11.09 -8.2)"/><path class="cls-2" d="M15.1,17.2h26a2,2,0,0,0,2-2v-2a2,2,0,0,0-2-2h-18c-1.1,0-1.8.19-2.58-.59A5.54,5.54,0,0,0,17.09,9.2h-2a2,2,0,0,0-2,2v4A2,2,0,0,0,15.1,17.2Z" transform="translate(-11.09 -8.2)"/></svg>