<svg id="Layer_1" data-name="Layer 1" xmlns="http://www.w3.org/2000/svg" xmlns:xlink="http://www.w3.org/1999/xlink" viewBox="0 0 42 38"><defs><style>.cls-1,.cls-2,.cls-3,.cls-8{fill:none;}.cls-1{clip-rule:evenodd;}.cls-3{fill-rule:evenodd;}.cls-4{clip-path:url(#clip-path);}.cls-5{clip-path:url(#clip-path-2);}.cls-6{clip-path:url(#clip-path-3);}.cls-7{fill:#e2f4fc;}.cls-8{stroke:#4881c3;stroke-miterlimit:10;stroke-width:4px;}.cls-9{clip-path:url(#clip-path-6);}.cls-10{fill:#4881c3;}.cls-11{clip-path:url(#clip-path-8);}.cls-12{clip-path:url(#clip-path-10);}</style><clipPath id="clip-path" transform="translate(-6.6 3.3)"><path class="cls-1" d="M9.6,18.7v10a5,5,0,0,0,5,5h26a5,5,0,0,0,5-5v-10a5,5,0,0,0-5-5h-26A5,5,0,0,0,9.6,18.7Zm2,0a3,3,0,0,1,3-3h26a3,3,0,0,1,3,3v10a3,3,0,0,1-3,3h-26a3,3,0,0,1-3-3Zm.87-2.24H42.78v14.4H12.46Z"/></clipPath><clipPath id="clip-path-2" transform="translate(-6.6 3.3)"><path class="cls-1" d="M10.6,18.7a4,4,0,0,1,4-4h26a4,4,0,0,1,4,4v10a4,4,0,0,1-4,4h-26a4,4,0,0,1-4-4Z"/></clipPath><clipPath id="clip-path-3" transform="translate(-6.6 3.3)"><rect class="cls-2" x="-717.4" y="-809.3" width="2880" height="1492"/></clipPath><clipPath id="clip-path-6" transform="translate(-6.6 3.3)"><rect class="cls-2" x="28.6" y="22.7" width="10" height="2"/></clipPath><clipPath id="clip-path-8" transform="translate(-6.6 3.3)"><rect class="cls-2" x="34.6" y="6.7" width="2" height="10"/></clipPath><clipPath id="clip-path-10" transform="translate(-6.6 3.3)"><rect class="cls-2" x="16.6" y="22.7" width="4" height="2"/></clipPath></defs><title>Gateway-CXOS</title><g class="cls-4"><g class="cls-5"><g class="cls-6"><path class="cls-7" d="M10.6,18.7a4,4,0,0,1,4-4h26a4,4,0,0,1,4,4v10a4,4,0,0,1-4,4h-26a4,4,0,0,1-4-4Z" transform="translate(-6.6 3.3)"/></g></g></g><g class="cls-5"><g class="cls-6"><path class="cls-8" d="M10.6,18.7a4,4,0,0,1,4-4h26a4,4,0,0,1,4,4v10a4,4,0,0,1-4,4h-26a4,4,0,0,1-4-4Z" transform="translate(-6.6 3.3)"/></g></g><g class="cls-9"><g class="cls-6"><rect class="cls-10" x="12" y="16" width="30" height="22"/></g></g><g class="cls-11"><g class="cls-6"><rect class="cls-10" x="18" width="22" height="30"/></g></g><g class="cls-12"><g class="cls-6"><rect class="cls-10" y="16" width="24" height="22"/></g></g></svg>