<svg id="SvgjsSvg1121" xmlns="http://www.w3.org/2000/svg" version="1.1" xmlns:xlink="http://www.w3.org/1999/xlink" xmlns:svgjs="http://svgjs.com/svgjs" width="19" height="18" viewBox="0 0 19 18"><title>Rectangle 11</title><desc>Created with Avocode.</desc><defs id="SvgjsDefs1122"><clipPath id="SvgjsClipPath1126"><path id="SvgjsPath1125" d="M1311.08931 225.40722C1311.34192 224.59207 1312.10182 224 1313 224L1314 224C1314.89818 224 1315.65808 224.59207 1315.91069 225.40722C1316.6358 224.88325 1317.6502 224.8962 1318.36673 225.49745L1319.13277 226.14023999999998C1319.92246 226.80286999999998 1320.07128 227.94585999999998 1319.51048 228.78325999999998L1319.54308 228.77750999999998C1320.63087 228.58569999999997 1321.6681899999999 229.31203999999997 1321.85999 230.39982999999998L1322.0336399999999 231.38464C1322.22545 232.47243 1321.49911 233.50975 1320.41132 233.70155L1319.6251 233.84018L1320.04903 234.08494000000002C1321.00562 234.63722 1321.3333699999998 235.86041000000003 1320.78108 236.81699L1320.28108 237.68302C1319.89912 238.34459999999999 1319.19626 238.70539 1318.48262 238.68231C1318.5063 239.52004 1317.99763 240.31556 1317.16691 240.61792L1316.22722 240.95994C1315.1892599999999 241.33773 1314.04158 240.80255 1313.66379 239.7646L1313.49999 239.31457L1313.33619 239.7646C1312.9584 240.80256 1311.81072 241.33773 1310.77276 240.95994L1309.8330700000001 240.61792C1309.0023500000002 240.31556 1308.49368 239.52004 1308.51736 238.68231C1307.80372 238.70539 1307.10086 238.3446 1306.7189 237.68302L1306.2189 236.81699C1305.66662 235.8604 1305.9943700000001 234.63722 1306.9509500000001 234.08494000000002L1307.37488 233.84018L1306.5886600000001 233.70155C1305.50087 233.50974 1304.7745300000001 232.47243 1304.9663400000002 231.38464L1305.1399900000001 230.39982999999998C1305.3318000000002 229.31203999999997 1306.36911 228.58569999999997 1307.4569000000001 228.77750999999998L1307.4895000000001 228.78325999999998C1306.9287000000002 227.94585999999998 1307.07752 226.80286999999998 1307.8672100000001 226.14023999999998L1308.63325 225.49745C1309.34979 224.8962 1310.36418 224.88324999999998 1311.0892900000001 225.40722ZM1311.8216 232.77337C1312.00122 232.92141 1312.15786 233.10354 1312.28109 233.31699L1312.78109 234.18302C1312.79511 234.2073 1312.80856 234.23175 1312.82144 234.25635L1313.16692 234.38209C1313.28461 234.42493000000002 1313.39584 234.47766000000001 1313.5 234.53901000000002C1313.60416 234.47766000000001 1313.71539 234.42493000000002 1313.83308 234.38209L1314.17856 234.25635C1314.19145 234.23175 1314.2049 234.2073 1314.21891 234.18302L1314.71891 233.31699C1314.84214 233.10355 1314.9987800000001 232.92141 1315.1784 232.77337C1315.16321 232.71675 1315.15037 232.65899 1315.14 232.60017L1314.9885800000002 231.74141C1314.8643700000002 231.67601 1314.74519 231.59645 1314.6332700000003 231.50254L1314.0340200000003 230.99971000000002C1314.0227000000002 230.99990000000003 1314.0113700000002 230.99999000000003 1314.0000100000002 230.99999000000003L1313.0000100000002 230.99999000000003C1312.9886500000002 230.99999000000003 1312.9773100000002 230.99990000000003 1312.9660000000001 230.99971000000002L1312.3667500000001 231.50254C1312.25483 231.59645 1312.1356500000002 231.67601000000002 1312.0114400000002 231.74141L1311.8600200000003 232.60017C1311.8496500000003 232.65899 1311.8368100000002 232.71675 1311.8216200000004 232.77337Z " fill="#ffffff"></path></clipPath></defs><path id="SvgjsPath1123" d="M1311.08931 225.40722C1311.34192 224.59207 1312.10182 224 1313 224L1314 224C1314.89818 224 1315.65808 224.59207 1315.91069 225.40722C1316.6358 224.88325 1317.6502 224.8962 1318.36673 225.49745L1319.13277 226.14023999999998C1319.92246 226.80286999999998 1320.07128 227.94585999999998 1319.51048 228.78325999999998L1319.54308 228.77750999999998C1320.63087 228.58569999999997 1321.6681899999999 229.31203999999997 1321.85999 230.39982999999998L1322.0336399999999 231.38464C1322.22545 232.47243 1321.49911 233.50975 1320.41132 233.70155L1319.6251 233.84018L1320.04903 234.08494000000002C1321.00562 234.63722 1321.3333699999998 235.86041000000003 1320.78108 236.81699L1320.28108 237.68302C1319.89912 238.34459999999999 1319.19626 238.70539 1318.48262 238.68231C1318.5063 239.52004 1317.99763 240.31556 1317.16691 240.61792L1316.22722 240.95994C1315.1892599999999 241.33773 1314.04158 240.80255 1313.66379 239.7646L1313.49999 239.31457L1313.33619 239.7646C1312.9584 240.80256 1311.81072 241.33773 1310.77276 240.95994L1309.8330700000001 240.61792C1309.0023500000002 240.31556 1308.49368 239.52004 1308.51736 238.68231C1307.80372 238.70539 1307.10086 238.3446 1306.7189 237.68302L1306.2189 236.81699C1305.66662 235.8604 1305.9943700000001 234.63722 1306.9509500000001 234.08494000000002L1307.37488 233.84018L1306.5886600000001 233.70155C1305.50087 233.50974 1304.7745300000001 232.47243 1304.9663400000002 231.38464L1305.1399900000001 230.39982999999998C1305.3318000000002 229.31203999999997 1306.36911 228.58569999999997 1307.4569000000001 228.77750999999998L1307.4895000000001 228.78325999999998C1306.9287000000002 227.94585999999998 1307.07752 226.80286999999998 1307.8672100000001 226.14023999999998L1308.63325 225.49745C1309.34979 224.8962 1310.36418 224.88324999999998 1311.0892900000001 225.40722ZM1311.8216 232.77337C1312.00122 232.92141 1312.15786 233.10354 1312.28109 233.31699L1312.78109 234.18302C1312.79511 234.2073 1312.80856 234.23175 1312.82144 234.25635L1313.16692 234.38209C1313.28461 234.42493000000002 1313.39584 234.47766000000001 1313.5 234.53901000000002C1313.60416 234.47766000000001 1313.71539 234.42493000000002 1313.83308 234.38209L1314.17856 234.25635C1314.19145 234.23175 1314.2049 234.2073 1314.21891 234.18302L1314.71891 233.31699C1314.84214 233.10355 1314.9987800000001 232.92141 1315.1784 232.77337C1315.16321 232.71675 1315.15037 232.65899 1315.14 232.60017L1314.9885800000002 231.74141C1314.8643700000002 231.67601 1314.74519 231.59645 1314.6332700000003 231.50254L1314.0340200000003 230.99971000000002C1314.0227000000002 230.99990000000003 1314.0113700000002 230.99999000000003 1314.0000100000002 230.99999000000003L1313.0000100000002 230.99999000000003C1312.9886500000002 230.99999000000003 1312.9773100000002 230.99990000000003 1312.9660000000001 230.99971000000002L1312.3667500000001 231.50254C1312.25483 231.59645 1312.1356500000002 231.67601000000002 1312.0114400000002 231.74141L1311.8600200000003 232.60017C1311.8496500000003 232.65899 1311.8368100000002 232.71675 1311.8216200000004 232.77337Z " fill="#e1f8fe" fill-opacity="1" transform="matrix(1,0,0,1,-1304,-224)"></path><path id="SvgjsPath1124" d="M1311.08931 225.40722C1311.34192 224.59207 1312.10182 224 1313 224L1314 224C1314.89818 224 1315.65808 224.59207 1315.91069 225.40722C1316.6358 224.88325 1317.6502 224.8962 1318.36673 225.49745L1319.13277 226.14023999999998C1319.92246 226.80286999999998 1320.07128 227.94585999999998 1319.51048 228.78325999999998L1319.54308 228.77750999999998C1320.63087 228.58569999999997 1321.6681899999999 229.31203999999997 1321.85999 230.39982999999998L1322.0336399999999 231.38464C1322.22545 232.47243 1321.49911 233.50975 1320.41132 233.70155L1319.6251 233.84018L1320.04903 234.08494000000002C1321.00562 234.63722 1321.3333699999998 235.86041000000003 1320.78108 236.81699L1320.28108 237.68302C1319.89912 238.34459999999999 1319.19626 238.70539 1318.48262 238.68231C1318.5063 239.52004 1317.99763 240.31556 1317.16691 240.61792L1316.22722 240.95994C1315.1892599999999 241.33773 1314.04158 240.80255 1313.66379 239.7646L1313.49999 239.31457L1313.33619 239.7646C1312.9584 240.80256 1311.81072 241.33773 1310.77276 240.95994L1309.8330700000001 240.61792C1309.0023500000002 240.31556 1308.49368 239.52004 1308.51736 238.68231C1307.80372 238.70539 1307.10086 238.3446 1306.7189 237.68302L1306.2189 236.81699C1305.66662 235.8604 1305.9943700000001 234.63722 1306.9509500000001 234.08494000000002L1307.37488 233.84018L1306.5886600000001 233.70155C1305.50087 233.50974 1304.7745300000001 232.47243 1304.9663400000002 231.38464L1305.1399900000001 230.39982999999998C1305.3318000000002 229.31203999999997 1306.36911 228.58569999999997 1307.4569000000001 228.77750999999998L1307.4895000000001 228.78325999999998C1306.9287000000002 227.94585999999998 1307.07752 226.80286999999998 1307.8672100000001 226.14023999999998L1308.63325 225.49745C1309.34979 224.8962 1310.36418 224.88324999999998 1311.0892900000001 225.40722ZM1311.8216 232.77337C1312.00122 232.92141 1312.15786 233.10354 1312.28109 233.31699L1312.78109 234.18302C1312.79511 234.2073 1312.80856 234.23175 1312.82144 234.25635L1313.16692 234.38209C1313.28461 234.42493000000002 1313.39584 234.47766000000001 1313.5 234.53901000000002C1313.60416 234.47766000000001 1313.71539 234.42493000000002 1313.83308 234.38209L1314.17856 234.25635C1314.19145 234.23175 1314.2049 234.2073 1314.21891 234.18302L1314.71891 233.31699C1314.84214 233.10355 1314.9987800000001 232.92141 1315.1784 232.77337C1315.16321 232.71675 1315.15037 232.65899 1315.14 232.60017L1314.9885800000002 231.74141C1314.8643700000002 231.67601 1314.74519 231.59645 1314.6332700000003 231.50254L1314.0340200000003 230.99971000000002C1314.0227000000002 230.99990000000003 1314.0113700000002 230.99999000000003 1314.0000100000002 230.99999000000003L1313.0000100000002 230.99999000000003C1312.9886500000002 230.99999000000003 1312.9773100000002 230.99990000000003 1312.9660000000001 230.99971000000002L1312.3667500000001 231.50254C1312.25483 231.59645 1312.1356500000002 231.67601000000002 1312.0114400000002 231.74141L1311.8600200000003 232.60017C1311.8496500000003 232.65899 1311.8368100000002 232.71675 1311.8216200000004 232.77337Z " fill-opacity="0" fill="#ffffff" stroke-dasharray="0" stroke-linejoin="miter" stroke-linecap="butt" stroke-opacity="1" stroke="#0a8dff" stroke-miterlimit="50" stroke-width="2" clip-path="url(&quot;#SvgjsClipPath1126&quot;)" transform="matrix(1,0,0,1,-1304,-224)"></path></svg>