<svg id="SvgjsSvg1193" xmlns="http://www.w3.org/2000/svg" version="1.1" xmlns:xlink="http://www.w3.org/1999/xlink" xmlns:svgjs="http://svgjs.com/svgjs" width="16" height="16" viewBox="0 0 16 16"><title>Rectangle 23</title><desc>Created with Avocode.</desc><defs id="SvgjsDefs1194"><clipPath id="SvgjsClipPath1198"><path id="SvgjsPath1197" d="M1122 61L1122 57L1126 57L1126 61Z " fill="#ffffff"></path></clipPath><clipPath id="SvgjsClipPath1202"><path id="SvgjsPath1201" d="M1128 61L1128 57L1132 57L1132 61Z " fill="#ffffff"></path></clipPath><clipPath id="SvgjsClipPath1206"><path id="SvgjsPath1205" d="M1134 61L1134 57L1138 57L1138 61Z " fill="#ffffff"></path></clipPath><clipPath id="SvgjsClipPath1210"><path id="SvgjsPath1209" d="M1122 67L1122 63L1126 63L1126 67Z " fill="#ffffff"></path></clipPath><clipPath id="SvgjsClipPath1214"><path id="SvgjsPath1213" d="M1128 67L1128 63L1132 63L1132 67Z " fill="#ffffff"></path></clipPath><clipPath id="SvgjsClipPath1218"><path id="SvgjsPath1217" d="M1134 67L1134 63L1138 63L1138 67Z " fill="#ffffff"></path></clipPath><clipPath id="SvgjsClipPath1222"><path id="SvgjsPath1221" d="M1122 73L1122 69L1126 69L1126 73Z " fill="#ffffff"></path></clipPath><clipPath id="SvgjsClipPath1226"><path id="SvgjsPath1225" d="M1128 73L1128 69L1132 69L1132 73Z " fill="#ffffff"></path></clipPath><clipPath id="SvgjsClipPath1230"><path id="SvgjsPath1229" d="M1134 73L1134 69L1138 69L1138 73Z " fill="#ffffff"></path></clipPath></defs><path id="SvgjsPath1195" d="M1122 61L1122 57L1126 57L1126 61Z " fill="#e5e5e5" fill-opacity="1" transform="matrix(1,0,0,1,-1122,-57)"></path><path id="SvgjsPath1196" d="M1122 61L1122 57L1126 57L1126 61Z " fill-opacity="0" fill="#ffffff" stroke-dasharray="0" stroke-linejoin="miter" stroke-linecap="butt" stroke-opacity="1" stroke="#9b9b9b" stroke-miterlimit="50" stroke-width="2" clip-path="url(&quot;#SvgjsClipPath1198&quot;)" transform="matrix(1,0,0,1,-1122,-57)"></path><path id="SvgjsPath1199" d="M1128 61L1128 57L1132 57L1132 61Z " fill="#e5e5e5" fill-opacity="1" transform="matrix(1,0,0,1,-1122,-57)"></path><path id="SvgjsPath1200" d="M1128 61L1128 57L1132 57L1132 61Z " fill-opacity="0" fill="#ffffff" stroke-dasharray="0" stroke-linejoin="miter" stroke-linecap="butt" stroke-opacity="1" stroke="#9b9b9b" stroke-miterlimit="50" stroke-width="2" clip-path="url(&quot;#SvgjsClipPath1202&quot;)" transform="matrix(1,0,0,1,-1122,-57)"></path><path id="SvgjsPath1203" d="M1134 61L1134 57L1138 57L1138 61Z " fill="#e5e5e5" fill-opacity="1" transform="matrix(1,0,0,1,-1122,-57)"></path><path id="SvgjsPath1204" d="M1134 61L1134 57L1138 57L1138 61Z " fill-opacity="0" fill="#ffffff" stroke-dasharray="0" stroke-linejoin="miter" stroke-linecap="butt" stroke-opacity="1" stroke="#9b9b9b" stroke-miterlimit="50" stroke-width="2" clip-path="url(&quot;#SvgjsClipPath1206&quot;)" transform="matrix(1,0,0,1,-1122,-57)"></path><path id="SvgjsPath1207" d="M1122 67L1122 63L1126 63L1126 67Z " fill="#e5e5e5" fill-opacity="1" transform="matrix(1,0,0,1,-1122,-57)"></path><path id="SvgjsPath1208" d="M1122 67L1122 63L1126 63L1126 67Z " fill-opacity="0" fill="#ffffff" stroke-dasharray="0" stroke-linejoin="miter" stroke-linecap="butt" stroke-opacity="1" stroke="#9b9b9b" stroke-miterlimit="50" stroke-width="2" clip-path="url(&quot;#SvgjsClipPath1210&quot;)" transform="matrix(1,0,0,1,-1122,-57)"></path><path id="SvgjsPath1211" d="M1128 67L1128 63L1132 63L1132 67Z " fill="#e5e5e5" fill-opacity="1" transform="matrix(1,0,0,1,-1122,-57)"></path><path id="SvgjsPath1212" d="M1128 67L1128 63L1132 63L1132 67Z " fill-opacity="0" fill="#ffffff" stroke-dasharray="0" stroke-linejoin="miter" stroke-linecap="butt" stroke-opacity="1" stroke="#9b9b9b" stroke-miterlimit="50" stroke-width="2" clip-path="url(&quot;#SvgjsClipPath1214&quot;)" transform="matrix(1,0,0,1,-1122,-57)"></path><path id="SvgjsPath1215" d="M1134 67L1134 63L1138 63L1138 67Z " fill="#e5e5e5" fill-opacity="1" transform="matrix(1,0,0,1,-1122,-57)"></path><path id="SvgjsPath1216" d="M1134 67L1134 63L1138 63L1138 67Z " fill-opacity="0" fill="#ffffff" stroke-dasharray="0" stroke-linejoin="miter" stroke-linecap="butt" stroke-opacity="1" stroke="#9b9b9b" stroke-miterlimit="50" stroke-width="2" clip-path="url(&quot;#SvgjsClipPath1218&quot;)" transform="matrix(1,0,0,1,-1122,-57)"></path><path id="SvgjsPath1219" d="M1122 73L1122 69L1126 69L1126 73Z " fill="#e5e5e5" fill-opacity="1" transform="matrix(1,0,0,1,-1122,-57)"></path><path id="SvgjsPath1220" d="M1122 73L1122 69L1126 69L1126 73Z " fill-opacity="0" fill="#ffffff" stroke-dasharray="0" stroke-linejoin="miter" stroke-linecap="butt" stroke-opacity="1" stroke="#9b9b9b" stroke-miterlimit="50" stroke-width="2" clip-path="url(&quot;#SvgjsClipPath1222&quot;)" transform="matrix(1,0,0,1,-1122,-57)"></path><path id="SvgjsPath1223" d="M1128 73L1128 69L1132 69L1132 73Z " fill="#e5e5e5" fill-opacity="1" transform="matrix(1,0,0,1,-1122,-57)"></path><path id="SvgjsPath1224" d="M1128 73L1128 69L1132 69L1132 73Z " fill-opacity="0" fill="#ffffff" stroke-dasharray="0" stroke-linejoin="miter" stroke-linecap="butt" stroke-opacity="1" stroke="#9b9b9b" stroke-miterlimit="50" stroke-width="2" clip-path="url(&quot;#SvgjsClipPath1226&quot;)" transform="matrix(1,0,0,1,-1122,-57)"></path><path id="SvgjsPath1227" d="M1134 73L1134 69L1138 69L1138 73Z " fill="#e5e5e5" fill-opacity="1" transform="matrix(1,0,0,1,-1122,-57)"></path><path id="SvgjsPath1228" d="M1134 73L1134 69L1138 69L1138 73Z " fill-opacity="0" fill="#ffffff" stroke-dasharray="0" stroke-linejoin="miter" stroke-linecap="butt" stroke-opacity="1" stroke="#9b9b9b" stroke-miterlimit="50" stroke-width="2" clip-path="url(&quot;#SvgjsClipPath1230&quot;)" transform="matrix(1,0,0,1,-1122,-57)"></path></svg>