<svg id="SvgjsSvg1141" xmlns="http://www.w3.org/2000/svg" version="1.1" xmlns:xlink="http://www.w3.org/1999/xlink" xmlns:svgjs="http://svgjs.com/svgjs" width="16" height="16" viewBox="0 0 16 16"><title>Rectangle 23</title><desc>Created with Avocode.</desc><defs id="SvgjsDefs1142"><clipPath id="SvgjsClipPath1146"><path id="SvgjsPath1145" d="M1122 61L1122 57L1126 57L1126 61Z " fill="#ffffff"></path></clipPath><clipPath id="SvgjsClipPath1150"><path id="SvgjsPath1149" d="M1128 61L1128 57L1132 57L1132 61Z " fill="#ffffff"></path></clipPath><clipPath id="SvgjsClipPath1154"><path id="SvgjsPath1153" d="M1134 61L1134 57L1138 57L1138 61Z " fill="#ffffff"></path></clipPath><clipPath id="SvgjsClipPath1158"><path id="SvgjsPath1157" d="M1122 67L1122 63L1126 63L1126 67Z " fill="#ffffff"></path></clipPath><clipPath id="SvgjsClipPath1162"><path id="SvgjsPath1161" d="M1128 67L1128 63L1132 63L1132 67Z " fill="#ffffff"></path></clipPath><clipPath id="SvgjsClipPath1166"><path id="SvgjsPath1165" d="M1134 67L1134 63L1138 63L1138 67Z " fill="#ffffff"></path></clipPath><clipPath id="SvgjsClipPath1170"><path id="SvgjsPath1169" d="M1122 73L1122 69L1126 69L1126 73Z " fill="#ffffff"></path></clipPath><clipPath id="SvgjsClipPath1174"><path id="SvgjsPath1173" d="M1128 73L1128 69L1132 69L1132 73Z " fill="#ffffff"></path></clipPath><clipPath id="SvgjsClipPath1178"><path id="SvgjsPath1177" d="M1134 73L1134 69L1138 69L1138 73Z " fill="#ffffff"></path></clipPath></defs><path id="SvgjsPath1143" d="M1122 61L1122 57L1126 57L1126 61Z " fill="#e1f8fe" fill-opacity="1" transform="matrix(1,0,0,1,-1122,-57)"></path><path id="SvgjsPath1144" d="M1122 61L1122 57L1126 57L1126 61Z " fill-opacity="0" fill="#ffffff" stroke-dasharray="0" stroke-linejoin="miter" stroke-linecap="butt" stroke-opacity="1" stroke="#0a8dff" stroke-miterlimit="50" stroke-width="2" clip-path="url(&quot;#SvgjsClipPath1146&quot;)" transform="matrix(1,0,0,1,-1122,-57)"></path><path id="SvgjsPath1147" d="M1128 61L1128 57L1132 57L1132 61Z " fill="#e1f8fe" fill-opacity="1" transform="matrix(1,0,0,1,-1122,-57)"></path><path id="SvgjsPath1148" d="M1128 61L1128 57L1132 57L1132 61Z " fill-opacity="0" fill="#ffffff" stroke-dasharray="0" stroke-linejoin="miter" stroke-linecap="butt" stroke-opacity="1" stroke="#0a8dff" stroke-miterlimit="50" stroke-width="2" clip-path="url(&quot;#SvgjsClipPath1150&quot;)" transform="matrix(1,0,0,1,-1122,-57)"></path><path id="SvgjsPath1151" d="M1134 61L1134 57L1138 57L1138 61Z " fill="#e1f8fe" fill-opacity="1" transform="matrix(1,0,0,1,-1122,-57)"></path><path id="SvgjsPath1152" d="M1134 61L1134 57L1138 57L1138 61Z " fill-opacity="0" fill="#ffffff" stroke-dasharray="0" stroke-linejoin="miter" stroke-linecap="butt" stroke-opacity="1" stroke="#0a8dff" stroke-miterlimit="50" stroke-width="2" clip-path="url(&quot;#SvgjsClipPath1154&quot;)" transform="matrix(1,0,0,1,-1122,-57)"></path><path id="SvgjsPath1155" d="M1122 67L1122 63L1126 63L1126 67Z " fill="#e1f8fe" fill-opacity="1" transform="matrix(1,0,0,1,-1122,-57)"></path><path id="SvgjsPath1156" d="M1122 67L1122 63L1126 63L1126 67Z " fill-opacity="0" fill="#ffffff" stroke-dasharray="0" stroke-linejoin="miter" stroke-linecap="butt" stroke-opacity="1" stroke="#0a8dff" stroke-miterlimit="50" stroke-width="2" clip-path="url(&quot;#SvgjsClipPath1158&quot;)" transform="matrix(1,0,0,1,-1122,-57)"></path><path id="SvgjsPath1159" d="M1128 67L1128 63L1132 63L1132 67Z " fill="#e1f8fe" fill-opacity="1" transform="matrix(1,0,0,1,-1122,-57)"></path><path id="SvgjsPath1160" d="M1128 67L1128 63L1132 63L1132 67Z " fill-opacity="0" fill="#ffffff" stroke-dasharray="0" stroke-linejoin="miter" stroke-linecap="butt" stroke-opacity="1" stroke="#0a8dff" stroke-miterlimit="50" stroke-width="2" clip-path="url(&quot;#SvgjsClipPath1162&quot;)" transform="matrix(1,0,0,1,-1122,-57)"></path><path id="SvgjsPath1163" d="M1134 67L1134 63L1138 63L1138 67Z " fill="#e1f8fe" fill-opacity="1" transform="matrix(1,0,0,1,-1122,-57)"></path><path id="SvgjsPath1164" d="M1134 67L1134 63L1138 63L1138 67Z " fill-opacity="0" fill="#ffffff" stroke-dasharray="0" stroke-linejoin="miter" stroke-linecap="butt" stroke-opacity="1" stroke="#0a8dff" stroke-miterlimit="50" stroke-width="2" clip-path="url(&quot;#SvgjsClipPath1166&quot;)" transform="matrix(1,0,0,1,-1122,-57)"></path><path id="SvgjsPath1167" d="M1122 73L1122 69L1126 69L1126 73Z " fill="#e1f8fe" fill-opacity="1" transform="matrix(1,0,0,1,-1122,-57)"></path><path id="SvgjsPath1168" d="M1122 73L1122 69L1126 69L1126 73Z " fill-opacity="0" fill="#ffffff" stroke-dasharray="0" stroke-linejoin="miter" stroke-linecap="butt" stroke-opacity="1" stroke="#0a8dff" stroke-miterlimit="50" stroke-width="2" clip-path="url(&quot;#SvgjsClipPath1170&quot;)" transform="matrix(1,0,0,1,-1122,-57)"></path><path id="SvgjsPath1171" d="M1128 73L1128 69L1132 69L1132 73Z " fill="#e1f8fe" fill-opacity="1" transform="matrix(1,0,0,1,-1122,-57)"></path><path id="SvgjsPath1172" d="M1128 73L1128 69L1132 69L1132 73Z " fill-opacity="0" fill="#ffffff" stroke-dasharray="0" stroke-linejoin="miter" stroke-linecap="butt" stroke-opacity="1" stroke="#0a8dff" stroke-miterlimit="50" stroke-width="2" clip-path="url(&quot;#SvgjsClipPath1174&quot;)" transform="matrix(1,0,0,1,-1122,-57)"></path><path id="SvgjsPath1175" d="M1134 73L1134 69L1138 69L1138 73Z " fill="#e1f8fe" fill-opacity="1" transform="matrix(1,0,0,1,-1122,-57)"></path><path id="SvgjsPath1176" d="M1134 73L1134 69L1138 69L1138 73Z " fill-opacity="0" fill="#ffffff" stroke-dasharray="0" stroke-linejoin="miter" stroke-linecap="butt" stroke-opacity="1" stroke="#0a8dff" stroke-miterlimit="50" stroke-width="2" clip-path="url(&quot;#SvgjsClipPath1178&quot;)" transform="matrix(1,0,0,1,-1122,-57)"></path></svg>