<svg id="SvgjsSvg1038" xmlns="http://www.w3.org/2000/svg" version="1.1" xmlns:xlink="http://www.w3.org/1999/xlink" xmlns:svgjs="http://svgjs.com/svgjs" width="17" height="9" viewBox="0 0 17 9"><title>Rectangle 2</title><desc>Created with Avocode.</desc><defs id="SvgjsDefs1039"><clipPath id="SvgjsClipPath1043"><path id="SvgjsPath1042" d="M20 317V308H37V317Z " fill="#ffffff"></path></clipPath></defs><path id="SvgjsPath1040" d="M20 317V308H37V317Z " fill="#e1f8fe" fill-opacity="1" transform="matrix(1,0,0,1,-20,-308)"></path><path id="SvgjsPath1041" d="M20 317V308H37V317Z " fill-opacity="0" fill="#ffffff" stroke-dasharray="0" stroke-linejoin="miter" stroke-linecap="butt" stroke-opacity="1" stroke="#0a8dff" stroke-miterlimit="50" stroke-width="2" clip-path="url(&quot;#SvgjsClipPath1043&quot;)" transform="matrix(1,0,0,1,-20,-308)"></path><path id="SvgjsPath1044" d="M27 312.5C27 311.67157 27.67157 311 28.5 311C29.32843 311 30 311.67157 30 312.5C30 313.32843 29.32843 314 28.5 314C27.67157 314 27 313.32843 27 312.5Z " fill="#0a8dff" fill-opacity="1" transform="matrix(1,0,0,1,-20,-308)"></path><path id="SvgjsPath1045" d="M24 314V312H25V314Z " fill="#0a8dff" fill-opacity="1" transform="matrix(1,0,0,1,-20,-308)"></path><path id="SvgjsPath1046" d="M33 314V312H34V314Z " fill="#0a8dff" fill-opacity="1" transform="matrix(1,0,0,1,-20,-308)"></path></svg>