<svg xmlns="http://www.w3.org/2000/svg" viewBox="0 0 32 35" width="30" height="34">
  <defs>
    <clipPath id="a">
      <path d="M688.8 1453.2v-7.4h13.4v7.4zm5.4-.8c.6.3 1.7.3 2.3 0l5-2.6c.4-.3.3-.7-.3-1l-5-2.6c-.5-.3-1.2-.3-1.7 0l-5 2.6c-.6.3-.7.7-.2 1z" fill="#fff"/>
    </clipPath>
  </defs>
  <path d="M.5 15.5c0-8.3 6.7-15 15-15s15 6.7 15 15-6.7 15-15 15-15-6.7-15-15z" fill="#e1f8fe"/>
  <path d="M.5 15.5c0-8.3 6.7-15 15-15s15 6.7 15 15-6.7 15-15 15-15-6.7-15-15z" fill="none" stroke-dasharray="0" stroke="#0a8dff" stroke-miterlimit="50"/>
  <path d="M9.8 12.3c-.5-.3-.4-.7.3-1l5-2.6c.5-.3 1.2-.3 1.7 0l5 2.6c.6.3.7.7.2 1L17 15c-.6.2-1.6.2-2.3 0z" fill="#e1f8fe"/>
  <path d="M689.3 1449.8c-.5-.3-.4-.7.3-1l5-2.6c.4-.3 1-.3 1.6 0l5 2.6c.6.3.7.7.2 1l-5 2.6c-.5.3-1.5.3-2.2 0z" fill="none" stroke-dasharray="0" stroke="#0a8dff" stroke-miterlimit="50" stroke-width="2" clip-path="url(&quot;#a&quot;)" transform="translate(-679.5 -1437.5)"/>
  <path d="M21.6 15.5c.7.3.8.8.3 1L17 19c-.6.4-1.7.4-2.3 0l-5-2.5c-.4-.3-.3-.7.4-1" fill="none" stroke-dasharray="0" stroke="#0a8dff" stroke-miterlimit="50"/>
  <path d="M21.6 18.5c.7.3.8.8.3 1L17 22c-.6.4-1.7.4-2.3 0l-5-2.5c-.4-.3-.3-.7.4-1" fill="none" stroke-dasharray="0" stroke="#0a8dff" stroke-miterlimit="50"/>
  <path d="M18.5 28c0-3.6 3-6.5 6.5-6.5 3.6 0 6.5 3 6.5 6.5 0 3.6-3 6.5-6.5 6.5-3.6 0-6.5-3-6.5-6.5z" fill="#e1f8fe"/>
  <path d="M18.5 28c0-3.6 3-6.5 6.5-6.5 3.6 0 6.5 3 6.5 6.5 0 3.6-3 6.5-6.5 6.5-3.6 0-6.5-3-6.5-6.5z" fill="none" stroke-dasharray="0" stroke="#0a8dff" stroke-miterlimit="50"/>
  <path d="M24.5 24.5V28l2.3 2.3" fill="none" stroke-dasharray="0" stroke="#0a8dff" stroke-miterlimit="50"/>
</svg>
