<svg id="SvgjsSvg1025" xmlns="http://www.w3.org/2000/svg" version="1.1" xmlns:xlink="http://www.w3.org/1999/xlink" xmlns:svgjs="http://svgjs.com/svgjs" width="16" height="12" viewBox="0 0 16 12"><title>Path 6</title><desc>Created with Avocode.</desc><defs id="SvgjsDefs1026"></defs><path id="SvgjsPath1027" d="M23 228L29 222L35 230 " fill-opacity="0" fill="#ffffff" stroke-dasharray="0" stroke-linejoin="miter" stroke-linecap="butt" stroke-opacity="1" stroke="#0a8dff" stroke-miterlimit="50" stroke-width="1" transform="matrix(1,0,0,1,-20.5,-219.5)"></path><path id="SvgjsPath1028" d="M21 227.5C21 226.67157 21.67157 226 22.5 226C23.32843 226 24 226.67157 24 227.5C24 228.32843 23.32843 229 22.5 229C21.67157 229 21 228.32843 21 227.5Z " fill="#e1f8fe" fill-opacity="1" transform="matrix(1,0,0,1,-20.5,-219.5)"></path><path id="SvgjsPath1029" d="M21 227.5C21 226.67157 21.67157 226 22.5 226C23.32843 226 24 226.67157 24 227.5C24 228.32843 23.32843 229 22.5 229C21.67157 229 21 228.32843 21 227.5Z " fill-opacity="0" fill="#ffffff" stroke-dasharray="0" stroke-linejoin="miter" stroke-linecap="butt" stroke-opacity="1" stroke="#0a8dff" stroke-miterlimit="50" stroke-width="1" transform="matrix(1,0,0,1,-20.5,-219.5)"></path><path id="SvgjsPath1030" d="M27 221.5C27 220.67157 27.67157 220 28.5 220C29.32843 220 30 220.67157 30 221.5C30 222.32843 29.32843 223 28.5 223C27.67157 223 27 222.32843 27 221.5Z " fill="#e1f8fe" fill-opacity="1" transform="matrix(1,0,0,1,-20.5,-219.5)"></path><path id="SvgjsPath1031" d="M27 221.5C27 220.67157 27.67157 220 28.5 220C29.32843 220 30 220.67157 30 221.5C30 222.32843 29.32843 223 28.5 223C27.67157 223 27 222.32843 27 221.5Z " fill-opacity="0" fill="#ffffff" stroke-dasharray="0" stroke-linejoin="miter" stroke-linecap="butt" stroke-opacity="1" stroke="#0a8dff" stroke-miterlimit="50" stroke-width="1" transform="matrix(1,0,0,1,-20.5,-219.5)"></path><path id="SvgjsPath1032" d="M33 229.5C33 228.67157 33.67157 228 34.5 228C35.32843 228 36 228.67157 36 229.5C36 230.32843 35.32843 231 34.5 231C33.67157 231 33 230.32843 33 229.5Z " fill="#e1f8fe" fill-opacity="1" transform="matrix(1,0,0,1,-20.5,-219.5)"></path><path id="SvgjsPath1033" d="M33 229.5C33 228.67157 33.67157 228 34.5 228C35.32843 228 36 228.67157 36 229.5C36 230.32843 35.32843 231 34.5 231C33.67157 231 33 230.32843 33 229.5Z " fill-opacity="0" fill="#ffffff" stroke-dasharray="0" stroke-linejoin="miter" stroke-linecap="butt" stroke-opacity="1" stroke="#0a8dff" stroke-miterlimit="50" stroke-width="1" transform="matrix(1,0,0,1,-20.5,-219.5)"></path></svg>