<svg id="SvgjsSvg1016" xmlns="http://www.w3.org/2000/svg" version="1.1" xmlns:xlink="http://www.w3.org/1999/xlink" xmlns:svgjs="http://svgjs.com/svgjs" width="16" height="20.574533169924905" viewBox="0 0 16 20.574533169924905"><title>Rectangle 7</title><desc>Created with Avocode.</desc><defs id="SvgjsDefs1017"><clipPath id="SvgjsClipPath1021"><path id="SvgjsPath1020" d="M20.82495 180.2163V170.78368999999998H36.17504V180.2163ZM27.64 178.9C28.310000000000002 179.21 29.42 179.21 30.09 178.9L35.42 176.12C35.93 175.82 35.78 175.32 35.11 175.01L29.78 172.23C29.27 171.92 28.46 171.92 27.94 172.23L22.61 175.01C21.939999999999998 175.32 21.79 175.82 22.31 176.12Z " fill="#ffffff"></path></clipPath></defs><path id="SvgjsPath1018" d="M22.31 176.12C21.79 175.82 21.939999999999998 175.32 22.61 175.01L27.939999999999998 172.23C28.459999999999997 171.92 29.269999999999996 171.92 29.779999999999998 172.23L35.11 175.01C35.78 175.32 35.93 175.82 35.42 176.12L30.090000000000003 178.9C29.42 179.21 28.310000000000002 179.21 27.640000000000004 178.9Z " fill="#e1f8fe" fill-opacity="1" transform="matrix(1,0,0,1,-20.5,-170.78369623357446)"></path><path id="SvgjsPath1019" d="M22.31 176.12C21.79 175.82 21.939999999999998 175.32 22.61 175.01L27.939999999999998 172.23C28.459999999999997 171.92 29.269999999999996 171.92 29.779999999999998 172.23L35.11 175.01C35.78 175.32 35.93 175.82 35.42 176.12L30.090000000000003 178.9C29.42 179.21 28.310000000000002 179.21 27.640000000000004 178.9Z " fill-opacity="0" fill="#ffffff" stroke-dasharray="0" stroke-linejoin="miter" stroke-linecap="butt" stroke-opacity="1" stroke="#0a8dff" stroke-miterlimit="50" stroke-width="2" clip-path="url(&quot;#SvgjsClipPath1021&quot;)" transform="matrix(1,0,0,1,-20.5,-170.78369623357446)"></path><path id="SvgjsPath1022" d="M35.11 179C35.78 179.31 35.93 179.81 35.42 180.12L30.090000000000003 182.89000000000001C29.42 183.20000000000002 28.310000000000002 183.20000000000002 27.640000000000004 182.89000000000001L22.310000000000002 180.12V180.12C21.790000000000003 179.81 21.94 179.31 22.610000000000003 179 " fill-opacity="0" fill="#ffffff" stroke-dasharray="0" stroke-linejoin="miter" stroke-linecap="butt" stroke-opacity="1" stroke="#0a8dff" stroke-miterlimit="50" stroke-width="1" transform="matrix(1,0,0,1,-20.5,-170.78369623357446)"></path><path id="SvgjsPath1023" d="M35.11 182C35.78 182.31 35.93 182.81 35.42 183.12L30.090000000000003 185.89000000000001C29.42 186.20000000000002 28.310000000000002 186.20000000000002 27.640000000000004 185.89000000000001L22.310000000000002 183.12V183.12C21.790000000000003 182.81 21.94 182.31 22.610000000000003 182 " fill-opacity="0" fill="#ffffff" stroke-dasharray="0" stroke-linejoin="miter" stroke-linecap="butt" stroke-opacity="1" stroke="#0a8dff" stroke-miterlimit="50" stroke-width="1" transform="matrix(1,0,0,1,-20.5,-170.78369623357446)"></path><path id="SvgjsPath1024" d="M35.11 186C35.78 186.31 35.93 186.81 35.42 187.12L30.090000000000003 189.89000000000001C29.42 190.20000000000002 28.310000000000002 190.20000000000002 27.640000000000004 189.89000000000001L22.310000000000002 187.12V187.12C21.790000000000003 186.81 21.94 186.31 22.610000000000003 186 " fill-opacity="0" fill="#ffffff" stroke-dasharray="0" stroke-linejoin="miter" stroke-linecap="butt" stroke-opacity="1" stroke="#0a8dff" stroke-miterlimit="50" stroke-width="1" transform="matrix(1,0,0,1,-20.5,-170.78369623357446)"></path></svg>