<svg id="Layer_1" data-name="Layer 1" xmlns="http://www.w3.org/2000/svg" xmlns:xlink="http://www.w3.org/1999/xlink" viewBox="0 0 45.39 45.39"><defs><style>.cls-1,.cls-2,.cls-3,.cls-7,.cls-9{fill:none;}.cls-2{clip-rule:evenodd;}.cls-3{fill-rule:evenodd;}.cls-4{clip-path:url(#clip-path);}.cls-5{clip-path:url(#clip-path-2);}.cls-6{fill:#e2f4fc;}.cls-7,.cls-9{stroke:#4883c4;stroke-miterlimit:10;}.cls-7{stroke-width:1.13px;}.cls-8{clip-path:url(#clip-path-3);}.cls-9{stroke-width:2.27px;}.cls-10{clip-path:url(#clip-path-7);}</style><clipPath id="clip-path" transform="translate(-4.9 -1)"><circle class="cls-1" cx="27.6" cy="23.7" r="17.02"/></clipPath><clipPath id="clip-path-2" transform="translate(-4.9 -1)"><rect class="cls-1" x="-1473.77" y="-564.14" width="1634.14" height="846.58"/></clipPath><clipPath id="clip-path-3" transform="translate(-4.9 -1)"><path class="cls-2" d="M31,18a1.14,1.14,0,0,1,1.15-1.14h1.12a2.26,2.26,0,0,1,2.27,2.28v3.39a2.27,2.27,0,0,1-2.27,2.28H32.15A1.13,1.13,0,0,1,31,23.7Z"/></clipPath><clipPath id="clip-path-7" transform="translate(-4.9 -1)"><path class="cls-2" d="M24.19,18A1.14,1.14,0,0,0,23,16.89H21.92a2.26,2.26,0,0,0-2.27,2.28v3.39a2.27,2.27,0,0,0,2.27,2.28H23a1.13,1.13,0,0,0,1.15-1.14Z"/></clipPath></defs><title>SmileFace-CXOS</title><g class="cls-4"><g class="cls-5"><rect class="cls-6" width="45.39" height="45.39"/></g></g><circle class="cls-7" cx="22.7" cy="22.7" r="17.02"/><g class="cls-8"><g class="cls-5"><path class="cls-6" d="M31,18a1.14,1.14,0,0,1,1.15-1.14h1.12a2.26,2.26,0,0,1,2.27,2.28v3.39a2.27,2.27,0,0,1-2.27,2.28H32.15A1.13,1.13,0,0,1,31,23.7Z" transform="translate(-4.9 -1)"/></g></g><g class="cls-8"><g class="cls-5"><path class="cls-9" d="M31,18a1.14,1.14,0,0,1,1.15-1.14h1.12a2.26,2.26,0,0,1,2.27,2.28v3.39a2.27,2.27,0,0,1-2.27,2.28H32.15A1.13,1.13,0,0,1,31,23.7Z" transform="translate(-4.9 -1)"/></g></g><g class="cls-10"><g class="cls-5"><path class="cls-6" d="M24.19,18A1.14,1.14,0,0,0,23,16.89H21.92a2.26,2.26,0,0,0-2.27,2.28v3.39a2.27,2.27,0,0,0,2.27,2.28H23a1.13,1.13,0,0,0,1.15-1.14Z" transform="translate(-4.9 -1)"/></g></g><g class="cls-10"><g class="cls-5"><path class="cls-9" d="M24.19,18A1.14,1.14,0,0,0,23,16.89H21.92a2.26,2.26,0,0,0-2.27,2.28v3.39a2.27,2.27,0,0,0,2.27,2.28H23a1.13,1.13,0,0,0,1.15-1.14Z" transform="translate(-4.9 -1)"/></g></g><path class="cls-7" d="M20.79,28.24c2.27,4.54,9.65,6.81,13.62,0" transform="translate(-4.9 -1)"/></svg>