<svg id="Layer_1" data-name="Layer 1" xmlns="http://www.w3.org/2000/svg" xmlns:xlink="http://www.w3.org/1999/xlink" viewBox="0 0 33.68 33.68"><defs><style>.cls-1,.cls-2,.cls-3{fill:none;}.cls-2{fill-rule:evenodd;}.cls-3{clip-rule:evenodd;}.cls-4{clip-path:url(#clip-path);}.cls-5{clip-path:url(#clip-path-2);}.cls-6{fill:#e2f4fc;}.cls-7{fill:#4883c4;}.cls-8{clip-path:url(#clip-path-3);}.cls-9{clip-path:url(#clip-path-5);}.cls-10{clip-path:url(#clip-path-9);}.cls-11{clip-path:url(#clip-path-13);}.cls-12{clip-path:url(#clip-path-14);}</style><clipPath id="clip-path" transform="translate(-10.76 -7.7)"><circle class="cls-1" cx="27.6" cy="24.54" r="12.63"/></clipPath><clipPath id="clip-path-2" transform="translate(-10.76 -7.7)"><rect class="cls-1" x="-567.77" y="-198.61" width="1212.63" height="628.21"/></clipPath><clipPath id="clip-path-3" transform="translate(-10.76 -7.7)"><path class="cls-3" d="M27.6,29.6h0c-2.79,0-5.05-2.65-5.05-5.89s2.27-5.89,5.05-5.89,5.05,2.65,5.05,5.89M13.28,8.54H41.91V38.86H13.28Z"/></clipPath><clipPath id="clip-path-5" transform="translate(-10.76 -7.7)"><path class="cls-3" d="M31.81,22a.84.84,0,0,1,.85-.84h.83a1.68,1.68,0,0,1,1.68,1.69v2.52a1.68,1.68,0,0,1-1.68,1.69h-.83a.84.84,0,0,1-.85-.84Z"/></clipPath><clipPath id="clip-path-9" transform="translate(-10.76 -7.7)"><path class="cls-3" d="M23.39,22a.84.84,0,0,0-.85-.84H21.7A1.68,1.68,0,0,0,20,22.86v2.52a1.68,1.68,0,0,0,1.68,1.69h.83a.84.84,0,0,0,.85-.84Z"/></clipPath><clipPath id="clip-path-13" transform="translate(-10.76 -7.7)"><path class="cls-3" d="M26.33,30A1.68,1.68,0,0,0,28,31.7H29.7a1.68,1.68,0,0,0,0-3.37H28A1.69,1.69,0,0,0,26.33,30Zm.84,0a.84.84,0,0,1,.84-.84H29.7a.84.84,0,0,1,0,1.68H28A.84.84,0,0,1,27.18,30Z"/></clipPath><clipPath id="clip-path-14" transform="translate(-10.76 -7.7)"><path class="cls-3" d="M26.76,30A1.26,1.26,0,0,1,28,28.75H29.7a1.26,1.26,0,0,1,0,2.53H28A1.26,1.26,0,0,1,26.76,30Z"/></clipPath></defs><title>SupportHeadset-CXOS</title><g class="cls-4"><g class="cls-5"><rect class="cls-6" width="33.68" height="33.68"/></g></g><path class="cls-7" d="M27.6,37.6A13.05,13.05,0,1,1,40.65,24.54,13.07,13.07,0,0,1,27.6,37.6Zm0-25.26A12.21,12.21,0,1,0,39.81,24.54,12.22,12.22,0,0,0,27.6,12.33Z" transform="translate(-10.76 -7.7)"/><g class="cls-8"><g class="cls-5"><path class="cls-7" d="M27.6,30.44c-3.25,0-5.9-3-5.9-6.74S24.35,17,27.6,17s5.89,3,5.89,6.74H31.81c0-2.79-1.89-5.05-4.21-5.05s-4.21,2.27-4.21,5.05,1.89,5.05,4.21,5.05Z" transform="translate(-10.76 -7.7)"/></g></g><g class="cls-9"><g class="cls-5"><path class="cls-6" d="M31.81,22a.84.84,0,0,1,.85-.84h.83a1.68,1.68,0,0,1,1.68,1.69v2.52a1.68,1.68,0,0,1-1.68,1.69h-.83a.84.84,0,0,1-.85-.84Z" transform="translate(-10.76 -7.7)"/></g></g><g class="cls-9"><g class="cls-5"><path class="cls-7" d="M33.49,27.91h-.83A1.69,1.69,0,0,1,31,26.23V22a1.69,1.69,0,0,1,1.69-1.69h.83A2.53,2.53,0,0,1,36,22.86v2.52A2.53,2.53,0,0,1,33.49,27.91ZM32.66,22h0v4.21h.84a.84.84,0,0,0,.84-.85V22.86a.84.84,0,0,0-.84-.85Z" transform="translate(-10.76 -7.7)"/></g></g><g class="cls-10"><g class="cls-5"><path class="cls-6" d="M23.39,22a.84.84,0,0,0-.85-.84H21.7A1.68,1.68,0,0,0,20,22.86v2.52a1.68,1.68,0,0,0,1.68,1.69h.83a.84.84,0,0,0,.85-.84Z" transform="translate(-10.76 -7.7)"/></g></g><g class="cls-10"><g class="cls-5"><path class="cls-7" d="M22.54,27.91H21.7a2.53,2.53,0,0,1-2.53-2.53V22.86a2.53,2.53,0,0,1,2.53-2.53h.83A1.69,1.69,0,0,1,24.23,22v4.21A1.69,1.69,0,0,1,22.54,27.91Zm0-5.9H21.7a.83.83,0,0,0-.84.85v2.52a.84.84,0,0,0,.84.85h.83V22Z" transform="translate(-10.76 -7.7)"/></g></g><g class="cls-11"><g class="cls-12"><g class="cls-5"><path class="cls-6" d="M26.76,30A1.26,1.26,0,0,1,28,28.75H29.7a1.26,1.26,0,0,1,0,2.53H28A1.26,1.26,0,0,1,26.76,30Z" transform="translate(-10.76 -7.7)"/></g></g></g><g class="cls-12"><g class="cls-5"><path class="cls-7" d="M29.7,32.12H28a2.1,2.1,0,1,1,0-4.21H29.7a2.1,2.1,0,1,1,0,4.21ZM28,29.6a.42.42,0,0,0-.42.42.42.42,0,0,0,.42.42H29.7a.42.42,0,0,0,.42-.42.42.42,0,0,0-.42-.42Z" transform="translate(-10.76 -7.7)"/></g></g></svg>