<svg id="SvgjsSvg1231" xmlns="http://www.w3.org/2000/svg" version="1.1" xmlns:xlink="http://www.w3.org/1999/xlink" xmlns:svgjs="http://svgjs.com/svgjs" width="16" height="16" viewBox="0 0 16 16"><title>Rectangle 23 Copy 17</title><desc>Created with Avocode.</desc><defs id="SvgjsDefs1232"><clipPath id="SvgjsClipPath1236"><path id="SvgjsPath1235" d="M1155 61L1155 57L1171 57L1171 61Z " fill="#ffffff"></path></clipPath><clipPath id="SvgjsClipPath1240"><path id="SvgjsPath1239" d="M1155 67L1155 63L1171 63L1171 67Z " fill="#ffffff"></path></clipPath><clipPath id="SvgjsClipPath1244"><path id="SvgjsPath1243" d="M1155 73L1155 69L1171 69L1171 73Z " fill="#ffffff"></path></clipPath></defs><path id="SvgjsPath1233" d="M1155 61L1155 57L1171 57L1171 61Z " fill="#e1f8fe" fill-opacity="1" transform="matrix(1,0,0,1,-1155,-57)"></path><path id="SvgjsPath1234" d="M1155 61L1155 57L1171 57L1171 61Z " fill-opacity="0" fill="#ffffff" stroke-dasharray="0" stroke-linejoin="miter" stroke-linecap="butt" stroke-opacity="1" stroke="#0a8dff" stroke-miterlimit="50" stroke-width="2" clip-path="url(&quot;#SvgjsClipPath1236&quot;)" transform="matrix(1,0,0,1,-1155,-57)"></path><path id="SvgjsPath1237" d="M1155 67L1155 63L1171 63L1171 67Z " fill="#e1f8fe" fill-opacity="1" transform="matrix(1,0,0,1,-1155,-57)"></path><path id="SvgjsPath1238" d="M1155 67L1155 63L1171 63L1171 67Z " fill-opacity="0" fill="#ffffff" stroke-dasharray="0" stroke-linejoin="miter" stroke-linecap="butt" stroke-opacity="1" stroke="#0a8dff" stroke-miterlimit="50" stroke-width="2" clip-path="url(&quot;#SvgjsClipPath1240&quot;)" transform="matrix(1,0,0,1,-1155,-57)"></path><path id="SvgjsPath1241" d="M1155 73L1155 69L1171 69L1171 73Z " fill="#e1f8fe" fill-opacity="1" transform="matrix(1,0,0,1,-1155,-57)"></path><path id="SvgjsPath1242" d="M1155 73L1155 69L1171 69L1171 73Z " fill-opacity="0" fill="#ffffff" stroke-dasharray="0" stroke-linejoin="miter" stroke-linecap="butt" stroke-opacity="1" stroke="#0a8dff" stroke-miterlimit="50" stroke-width="2" clip-path="url(&quot;#SvgjsClipPath1244&quot;)" transform="matrix(1,0,0,1,-1155,-57)"></path></svg>