<svg id="SvgjsSvg1179" xmlns="http://www.w3.org/2000/svg" version="1.1" xmlns:xlink="http://www.w3.org/1999/xlink" xmlns:svgjs="http://svgjs.com/svgjs" width="16" height="16" viewBox="0 0 16 16"><title>Rectangle 23 Copy 17</title><desc>Created with Avocode.</desc><defs id="SvgjsDefs1180"><clipPath id="SvgjsClipPath1184"><path id="SvgjsPath1183" d="M1155 61L1155 57L1171 57L1171 61Z " fill="#ffffff"></path></clipPath><clipPath id="SvgjsClipPath1188"><path id="SvgjsPath1187" d="M1155 67L1155 63L1171 63L1171 67Z " fill="#ffffff"></path></clipPath><clipPath id="SvgjsClipPath1192"><path id="SvgjsPath1191" d="M1155 73L1155 69L1171 69L1171 73Z " fill="#ffffff"></path></clipPath></defs><path id="SvgjsPath1181" d="M1155 61L1155 57L1171 57L1171 61Z " fill="#e5e5e5" fill-opacity="1" transform="matrix(1,0,0,1,-1155,-57)"></path><path id="SvgjsPath1182" d="M1155 61L1155 57L1171 57L1171 61Z " fill-opacity="0" fill="#ffffff" stroke-dasharray="0" stroke-linejoin="miter" stroke-linecap="butt" stroke-opacity="1" stroke="#9b9b9b" stroke-miterlimit="50" stroke-width="2" clip-path="url(&quot;#SvgjsClipPath1184&quot;)" transform="matrix(1,0,0,1,-1155,-57)"></path><path id="SvgjsPath1185" d="M1155 67L1155 63L1171 63L1171 67Z " fill="#e5e5e5" fill-opacity="1" transform="matrix(1,0,0,1,-1155,-57)"></path><path id="SvgjsPath1186" d="M1155 67L1155 63L1171 63L1171 67Z " fill-opacity="0" fill="#ffffff" stroke-dasharray="0" stroke-linejoin="miter" stroke-linecap="butt" stroke-opacity="1" stroke="#9b9b9b" stroke-miterlimit="50" stroke-width="2" clip-path="url(&quot;#SvgjsClipPath1188&quot;)" transform="matrix(1,0,0,1,-1155,-57)"></path><path id="SvgjsPath1189" d="M1155 73L1155 69L1171 69L1171 73Z " fill="#e5e5e5" fill-opacity="1" transform="matrix(1,0,0,1,-1155,-57)"></path><path id="SvgjsPath1190" d="M1155 73L1155 69L1171 69L1171 73Z " fill-opacity="0" fill="#ffffff" stroke-dasharray="0" stroke-linejoin="miter" stroke-linecap="butt" stroke-opacity="1" stroke="#9b9b9b" stroke-miterlimit="50" stroke-width="2" clip-path="url(&quot;#SvgjsClipPath1192&quot;)" transform="matrix(1,0,0,1,-1155,-57)"></path></svg>