<svg id="Layer_1" data-name="Layer 1" xmlns="http://www.w3.org/2000/svg" xmlns:xlink="http://www.w3.org/1999/xlink" viewBox="0 0 67.95 58.16"><defs><style>.cls-1,.cls-11,.cls-2,.cls-6{fill:none;}.cls-1{clip-rule:evenodd;}.cls-3{clip-path:url(#clip-path);}.cls-4{clip-path:url(#clip-path-2);}.cls-5{fill:#e2f4fc;}.cls-11,.cls-6{stroke:#4883c4;stroke-miterlimit:10;}.cls-6{stroke-width:1.82px;}.cls-7{clip-path:url(#clip-path-3);}.cls-8{clip-path:url(#clip-path-5);}.cls-9{clip-path:url(#clip-path-7);}.cls-10{clip-path:url(#clip-path-9);}.cls-11{stroke-width:1.82px;}</style><clipPath id="clip-path" transform="translate(6.38 5.38)"><path class="cls-1" d="M9.18,13.25c-1.33-1.5-.79-2.72,1.22-2.72h6.42V21.88Z"/></clipPath><clipPath id="clip-path-2" transform="translate(6.38 5.38)"><rect class="cls-2" x="-648.33" y="-732.32" width="2617.01" height="1355.76"/></clipPath><clipPath id="clip-path-3" transform="translate(6.38 5.38)"><path class="cls-1" d="M46,13.25c1.33-1.5.79-2.72-1.22-2.72H38.37V21.88Z"/></clipPath><clipPath id="clip-path-5" transform="translate(6.38 5.38)"><path class="cls-1" d="M9.18,29.6c-1.33-1.5-.79-2.72,1.22-2.72h6.42V38.24Z"/></clipPath><clipPath id="clip-path-7" transform="translate(6.38 5.38)"><path class="cls-1" d="M46,29.6c1.33-1.5.79-2.72-1.22-2.72H38.37V38.24Z"/></clipPath><clipPath id="clip-path-9" transform="translate(6.38 5.38)"><path class="cls-1" d="M16.83,7.33a3.64,3.64,0,0,1,3.65-3.62H35a3.63,3.63,0,0,1,3.65,3.62V40.07A3.64,3.64,0,0,1,35,43.69H20.48a3.63,3.63,0,0,1-3.65-3.62Z"/></clipPath></defs><title>TrafficSignalNetwork-CXOS</title><g class="cls-3"><g class="cls-4"><rect class="cls-5" x="-0.11" y="-0.81" width="28.01" height="30.64" transform="translate(0.76 24.66) rotate(-60)"/></g></g><path class="cls-6" d="M9.18,13.25c-1.33-1.5-.79-2.72,1.22-2.72h6.42V21.88Z" transform="translate(6.38 5.38)"/><g class="cls-7"><g class="cls-4"><rect class="cls-5" x="25.99" y="0.5" width="30.64" height="28.01" transform="translate(4.66 27.97) rotate(-30)"/></g></g><path class="cls-6" d="M46,13.25c1.33-1.5.79-2.72-1.22-2.72H38.37V21.88Z" transform="translate(6.38 5.38)"/><g class="cls-8"><g class="cls-4"><rect class="cls-5" x="-0.11" y="15.55" width="28.01" height="30.64" transform="translate(-13.41 32.84) rotate(-60)"/></g></g><path class="cls-6" d="M9.18,29.6c-1.33-1.5-.79-2.72,1.22-2.72h6.42V38.24Z" transform="translate(6.38 5.38)"/><g class="cls-9"><g class="cls-4"><rect class="cls-5" x="25.99" y="16.86" width="30.64" height="28.01" transform="translate(-3.52 30.16) rotate(-30)"/></g></g><path class="cls-6" d="M46,29.6c1.33-1.5.79-2.72-1.22-2.72H38.37V38.24Z" transform="translate(6.38 5.38)"/><g class="cls-10"><g class="cls-4"><rect class="cls-5" x="14.12" width="39.98" height="58.16"/></g></g><path class="cls-11" d="M16.83,7.33a3.64,3.64,0,0,1,3.65-3.62H35a3.63,3.63,0,0,1,3.65,3.62V40.07A3.64,3.64,0,0,1,35,43.69H20.48a3.63,3.63,0,0,1-3.65-3.62Z" transform="translate(6.38 5.38)"/><circle class="cls-11" cx="34.11" cy="21.81" r="5.45"/><circle class="cls-11" cx="34.11" cy="36.35" r="5.45"/></svg>