<svg xmlns="http://www.w3.org/2000/svg" viewBox="0 0 36 43">
  <path d="M2.3 10.6C1 9.8 1.3 8.6 3 8l13-7c1.3-.7 3.3-.7 4.6 0l13 7c1.7.6 2 1.8.8 2.6l-13 6.8c-1.7.7-4.4.7-6 0z" fill="#e1f8fe"/>
  <path d="M2.3 10.6C1 9.8 1.3 8.6 3 8l13-7c1.3-.7 3.3-.7 4.6 0l13 7c1.7.6 2 1.8.8 2.6l-13 6.8c-1.7.7-4.4.7-6 0z" fill="none" stroke-dasharray="0" stroke="#0a8dff" stroke-miterlimit="50"/>
  <path d="M33.6 13.5c1.7.8 2 2 .8 2.7l-13 6.8c-1.7.8-4.4.8-6 0l-13-6.8c-1.4-.7-1-2 .6-2.7" fill="none" stroke-dasharray="0" stroke="#0a8dff" stroke-miterlimit="50"/>
  <path d="M33.6 19.5c1.7.8 2 2 .8 2.7l-13 6.8c-1.7.8-4.4.8-6 0l-13-6.8c-1.4-.7-1-2 .6-2.7" fill="none" stroke-dasharray="0" stroke="#0a8dff" stroke-miterlimit="50"/>
  <path d="M33.6 25.5c1.7.8 2 2 .8 2.7l-13 6.8c-1.7.8-4.4.8-6 0l-13-6.8c-1.4-.7-1-2 .6-2.7" fill="none" stroke-dasharray="0" stroke="#0a8dff" stroke-miterlimit="50"/>
  <path d="M33.6 31.5c1.7.8 2 2 .8 2.7l-13 6.8c-1.7.8-4.4.8-6 0l-13-6.8c-1.4-.7-1-2 .6-2.7" fill="none" stroke-dasharray="0" stroke="#0a8dff" stroke-miterlimit="50"/>
</svg>
